
<svg xmlns="http://www.w3.org/2000/svg" viewBox="0 0 265.78 268.55" data-name="example-system"><g id="example-system-illustration"><g id="example-system-illustration--top"><path class="fill-hue-10" d="M10.2,163.52l-.08-20.13c0-6.32,3.59-12.51,10.28-18.11l.08,20.12C13.79,151,10.18,157.19,10.2,163.52Z"/><path class="fill-hue-10" d="M11.41,123.55l9,1.73c-7.7,6.44-11.32,13.66-10,21l-10,.32C-1,138.55,3,130.62,11.41,123.55Z"/><path class="fill-hue-9" d="M19.4,168.65l.08,20.13A51.91,51.91,0,0,1,6.15,178,24.16,24.16,0,0,1,.49,166.71L.41,146.58a24.22,24.22,0,0,0,5.65,11.27A52,52,0,0,0,19.4,168.65Z"/><path class="fill-hue-9" d="M.41,146.58l10-.32a21.8,21.8,0,0,0,5.12,10.22,47.51,47.51,0,0,0,12.17,9.88l-8.27,2.29a52,52,0,0,1-13.34-10.8A24.22,24.22,0,0,1,.41,146.58Z"/></g><g id="example-system-illustration--back"><path class="fill-hue-12" d="M104.78,101.85l.08,20.12a241.2,241.2,0,0,0-25.42,2.17,191.24,191.24,0,0,0-24.46,5L54.9,109a191.24,191.24,0,0,1,24.46-5A238.34,238.34,0,0,1,104.78,101.85Z"/><path class="fill-hue-12--dark" d="M76.15,100.2a261.53,261.53,0,0,1,27.92-2.38l.71,4A238.34,238.34,0,0,0,79.36,104a191.24,191.24,0,0,0-24.46,5l-5.61-3.33A209.68,209.68,0,0,1,76.15,100.2Z"/><path class="fill-hue-11" d="M54.9,109,55,129.14c-15,4.17-26.79,9.82-34.5,16.26l-.08-20.12C28.11,118.84,39.89,113.18,54.9,109Z"/><path class="fill-hue-11--dark" d="M49.29,105.69,54.9,109c-15,4.16-26.79,9.82-34.5,16.26l-9-1.73C19.87,116.47,32.81,110.27,49.29,105.69Z"/><path class="fill-hue-3" d="M213.87,139.64l.08,20.12a21.93,21.93,0,0,0-5.15-10.27,47.16,47.16,0,0,0-12.14-9.83l-.09-20.13a47.07,47.07,0,0,1,12.15,9.84A22,22,0,0,1,213.87,139.64Z"/><path class="fill-hue-3--dark" d="M204.86,117.24A51.68,51.68,0,0,1,218.19,128a24.19,24.19,0,0,1,5.66,11.27l-10,.33a22,22,0,0,0-5.15-10.27,47.07,47.07,0,0,0-12.15-9.84Z"/><path class="fill-hue-2" d="M196.57,119.53l.09,20.13c-10.18-6-24.07-10.76-40-13.82l-.08-20.12C172.5,108.78,186.39,113.5,196.57,119.53Z" /><path class="fill-hue-2--dark" d="M161,102.07c17.43,3.36,32.69,8.54,43.87,15.17l-8.29,2.29c-10.18-6-24.07-10.75-39.95-13.81Z" /><path class="fill-hue-1" d="M156.62,105.72l.08,20.12A237.11,237.11,0,0,0,104.86,122l-.08-20.12A237.11,237.11,0,0,1,156.62,105.72Z"/><path class="fill-hue-1--dark" d="M104.07,97.82A260.21,260.21,0,0,1,161,102.07l-4.37,3.65a237.11,237.11,0,0,0-51.84-3.87Z"/></g><g id="example-system-illustration--values"><path class="fill-value-0" d="M112.11,243l-3.41.94-1,.28-3,.83-4.14,1.15-7.46,2.07.09,20.12,7.46-2.07,4-1.12,4-1.11,3.49-1Z"/><path class="fill-value-0"  d="M90.32,246a5,5,0,0,1-1.16-2.27v20.11A5.56,5.56,0,0,0,92.52,268l.67.37-.09-20.12h0A10.75,10.75,0,0,1,90.32,246Z"/><path class="fill-value-1"  d="M112.11,223l-3.41.94-1,.28-3,.83-4.14,1.15-7.46,2.07.09,20.12,7.46-2.07,4-1.12,4-1.11,3.49-1Z"/><path class="fill-value-1"  d="M90.32,226a5,5,0,0,1-1.16-2.27v20.11A5.56,5.56,0,0,0,92.52,248l.67.37-.09-20.12h0A10.75,10.75,0,0,1,90.32,226Z"/><path class="fill-value-2"  d="M112.11,203l-3.41.94-1,.28-3,.83-4.14,1.15-7.46,2.07.09,20.12,7.46-2.07,4-1.12,4-1.11,3.49-1Z"/><path class="fill-value-2"  d="M90.32,206a5,5,0,0,1-1.16-2.27v20.11A5.56,5.56,0,0,0,92.52,228l.67.37-.09-20.12h0A10.75,10.75,0,0,1,90.32,206Z"/><path class="fill-value-3"  d="M112.11,183l-3.41.94-1,.28-3,.83-4.14,1.15-7.46,2.07.09,20.12,7.46-2.07,4-1.12,4-1.11,3.49-1Z"/><path class="fill-value-3"  d="M90.32,186a5,5,0,0,1-1.16-2.27v20.11A5.56,5.56,0,0,0,92.52,208l.67.37-.09-20.12h0A10.75,10.75,0,0,1,90.32,186Z"/><path class="fill-value-4"  d="M112.11,163l-3.41.94-1,.28-3,.83-4.14,1.15-7.46,2.07.09,20.12,7.46-2.07,4-1.12,4-1.11,3.49-1Z"/><path class="fill-value-4"  d="M90.32,166a5,5,0,0,1-1.16-2.27v20.11A5.56,5.56,0,0,0,92.52,188l.67.37-.09-20.12h0A10.75,10.75,0,0,1,90.32,166Z"/><path class="fill-value-5"  d="M112.11,143l-3.41.94-1,.28-3,.83-4.14,1.15-7.46,2.07.09,20.12,7.46-2.07,4-1.12,4-1.11,3.49-1Z"/><path class="fill-value-5"  d="M90.32,146a5,5,0,0,1-1.16-2.27v20.11A5.56,5.56,0,0,0,92.52,168l.67.37-.09-20.12h0A10.75,10.75,0,0,1,90.32,146Z"/><path class="fill-value-6"  d="M112.11,123l-3.41.94-1,.28-3,.83-4.14,1.15-7.46,2.07.09,20.12,7.46-2.07,4-1.12,4-1.11,3.49-1Z" /><path class="fill-value-6"  d="M90.32,126a5,5,0,0,1-1.16-2.27v20.11A5.56,5.56,0,0,0,92.52,148l.67.37-.09-20.12h0A10.75,10.75,0,0,1,90.32,126Z" /><path class="fill-value-7"  d="M112.11,103l-3.41.94-1,.28-3,.83-4.14,1.15-7.46,2.07.09,20.12,7.46-2.07,4-1.12,4-1.11,3.49-1Z"/><path class="fill-value-7"  d="M90.32,106a5,5,0,0,1-1.16-2.27v20.11A5.56,5.56,0,0,0,92.52,128l.67.37-.09-20.12h0A10.75,10.75,0,0,1,90.32,106Z"/><path class="fill-value-8"  d="M112.11,83l-3.41.94-1,.28-3,.83-4.14,1.15L93.1,88.22l.09,20.12,7.46-2.07,4-1.12,4-1.11,3.49-1Z"/><path class="fill-value-8"  d="M90.32,86a5,5,0,0,1-1.16-2.27v20.11A5.56,5.56,0,0,0,92.52,108l.67.37L93.1,88.22h0A10.75,10.75,0,0,1,90.32,86Z"/><path class="fill-value-9"  d="M112.11,63l-3.41.94-1,.28-3,.83-4.14,1.15L93.1,68.22l.09,20.12,7.46-2.07,4-1.12,4-1.11,3.49-1Z"/><path class="fill-value-9"  d="M90.32,66a5,5,0,0,1-1.16-2.27V83.81A5.56,5.56,0,0,0,92.52,88l.67.37L93.1,68.22h0A10.75,10.75,0,0,1,90.32,66Z"/><path class="fill-value-10" d="M112.11,43l-3.41.94-1,.28-3,.83-4.14,1.15L93.1,48.22l.09,20.12,7.46-2.07,4-1.12,4-1.11,3.49-1Z"/><path class="fill-value-10" d="M90.32,46a5,5,0,0,1-1.16-2.27V63.81A5.56,5.56,0,0,0,92.52,68l.67.37L93.1,48.22h0A10.75,10.75,0,0,1,90.32,46Z"/><path class="fill-value-10" d="M108.7,43.06l-4,.13-6.54.21-9,.3h0A5,5,0,0,0,90.32,46a10.75,10.75,0,0,0,2.78,2.25h0L104.7,45l4-1.11,3.41-.94Z"/></g><g id="example-system-illustration--chromas"><polygon class="fill-v5-c4-h9" points="93.11 148.22 84.83 150.51 76.55 152.81 76.63 172.93 84.91 170.64 93.19 168.34 93.11 148.22"/><path class="fill-v5-c4-h9" d="M90.32,146a5,5,0,0,1-1.16-2.27l-10,.32-10,.33a9.32,9.32,0,0,0,2.17,4.28,19.91,19.91,0,0,0,5.17,4.18l8.28-2.3,8.27-2.29A10.75,10.75,0,0,1,90.32,146Z"/><polygon class="fill-v5-c6-h9" points="76.55 152.81 68.27 155.1 59.99 157.4 60.08 177.52 68.35 175.23 76.63 172.93 76.55 152.81"/><path class="fill-v5-c6-h9" d="M71.38,148.63a9.32,9.32,0,0,1-2.17-4.28l-10,.32-10,.33a13.6,13.6,0,0,0,3.17,6.29A29.41,29.41,0,0,0,60,157.4l8.28-2.3,8.28-2.29A19.91,19.91,0,0,1,71.38,148.63Z"/><polygon class="fill-v5-c8-h9" points="59.99 157.4 51.72 159.69 43.43 161.99 43.51 182.11 51.8 179.82 60.08 177.52 59.99 157.4"/><path class="fill-v5-c8-h9" d="M52.43,151.29A13.6,13.6,0,0,1,49.26,145l-10,.32-10,.33A18.1,18.1,0,0,0,33.49,154a38.87,38.87,0,0,0,9.94,8l8.29-2.3L60,157.4A29.41,29.41,0,0,1,52.43,151.29Z"/><polygon class="fill-v5-c10-h9" points="43.43 161.99 35.97 164.06 27.68 166.36 27.77 186.48 36.05 184.18 43.51 182.11 43.43 161.99"/><path class="fill-v5-c10-h9" d="M33.49,154a18.1,18.1,0,0,1-4.19-8.31l-9,.29-10,.32a22.17,22.17,0,0,0,5.17,10.24,47.34,47.34,0,0,0,12.16,9.86l8.29-2.3L43.43,162A38.87,38.87,0,0,1,33.49,154Z"/></g><g id="example-system-illustration--front"><path class="fill-hue-8" d="M63.25,183.81l.08,20.13c-17.43-3.36-32.67-8.54-43.85-15.16l-.08-20.13C30.58,175.28,45.82,180.45,63.25,183.81Z" /><path class="fill-hue-8--dark" d="M27.67,166.36c10.18,6,24.07,10.74,39.94,13.8l-4.36,3.65c-17.43-3.36-32.67-8.53-43.85-15.16Z" /><path class="fill-hue-7" d="M120.14,188.07l.08,20.12a260.6,260.6,0,0,1-56.89-4.25l-.08-20.13A260.58,260.58,0,0,0,120.14,188.07Z" /><path class="fill-hue-7--dark" d="M67.61,180.16A236.91,236.91,0,0,0,119.43,184l.71,4a260.58,260.58,0,0,1-56.89-4.26Z" /><path class="fill-hue-6" d="M174.92,180.21l.09,20.12a208.88,208.88,0,0,1-26.83,5.48,261.61,261.61,0,0,1-28,2.38l-.08-20.12a261.83,261.83,0,0,0,28-2.38A210.79,210.79,0,0,0,174.92,180.21Z" /><path class="fill-hue-6--dark" d="M169.31,176.88l5.61,3.33a210.79,210.79,0,0,1-26.82,5.48,261.83,261.83,0,0,1-28,2.38l-.71-4a236.07,236.07,0,0,0,25.46-2.17A190.27,190.27,0,0,0,169.31,176.88Z" /><path class="fill-hue-4" d="M224.13,142.44l.09,20.13c0,7-3.95,13.76-11.3,19.91l-.09-20.12C220.19,156.2,224.16,149.4,224.13,142.44Z"/><path class="fill-hue-4--dark" d="M213.87,139.64l10-.33c1.43,8-2.56,16-11,23.05l-9-1.74C211.54,154.18,215.17,147,213.87,139.64Z"/><path class="fill-hue-5" d="M212.83,162.36l.09,20.12c-8.47,7.07-21.42,13.28-37.91,17.85l-.09-20.12C191.41,175.64,204.37,169.43,212.83,162.36Z"/><path class="fill-hue-5--dark" d="M203.84,160.62l9,1.74c-8.46,7.07-21.42,13.28-37.91,17.85l-5.61-3.33C184.33,172.72,196.12,167.07,203.84,160.62Z"/></g></g><g id="example-system-legend"><g id="example-system-legend--valueline"><line fill="transparent" stroke="currentColor" x1="228.83" y1="59.69" x2="228.83" y2="81.22"/><line fill="transparent" stroke="currentColor" x1="228.83" y1="3.02" x2="228.83" y2="54.92"/><path fill="currentColor" d="M228.83,84.25A15.31,15.31,0,0,0,226.45,80l2.38.86,2.39-.86A15.09,15.09,0,0,0,228.83,84.25Z"/><path fill="currentColor" d="M228.83,0a15,15,0,0,0,2.39,4.28l-2.39-.86-2.38.86A15,15,0,0,0,228.83,0Z"/></g><g id="example-system-legend--hueline"><path fill="transparent" stroke="currentColor" d="M231.69,27.64a82.76,82.76,0,0,1,10.73,1"/><path fill="transparent" stroke="currentColor" d="M263.06,37.61a7.51,7.51,0,0,1,2,4.85c0,8.21-16.21,14.86-36.2,14.86s-36.19-6.65-36.19-14.86c0-7.85,14.79-14.27,33.54-14.83"/><path fill="currentColor" d="M245.41,29.17a15.14,15.14,0,0,0-4.62,1.65L242,28.61l-.46-2.49A15,15,0,0,0,245.41,29.17Z"/><path fill="currentColor" d="M261.12,35.29A14.74,14.74,0,0,0,265.7,37l-2.38.88-1.27,2.19A15.42,15.42,0,0,0,261.12,35.29Z"/></g><g id="example-system-legend--chromaline"><line fill="transparent" stroke="currentColor" x1="222.82" y1="44.04" x2="178.96" y2="55.6"/><path fill="currentColor" d="M176,56.37A15.24,15.24,0,0,0,179.57,53l-.23,2.52,1.44,2.09A15,15,0,0,0,176,56.37Z"/><path fill="currentColor" d="M225.74,43.27a15.24,15.24,0,0,0-3.53,3.4l.22-2.53L221,42.06A15.3,15.3,0,0,0,225.74,43.27Z"/></g><g id="example-system-legend--chromas" fill="currentColor"><path d="M177.41,65.89a4.28,4.28,0,0,1-1.78.32,3.15,3.15,0,0,1-3.33-3.43,3.36,3.36,0,0,1,3.53-3.55,3.65,3.65,0,0,1,1.6.3l-.22.72a3.08,3.08,0,0,0-1.35-.29,2.52,2.52,0,0,0-2.64,2.79,2.45,2.45,0,0,0,2.59,2.72,3.5,3.5,0,0,0,1.43-.28Z"/><path d="M178.46,59h.88v3h0a1.57,1.57,0,0,1,.63-.62,1.71,1.71,0,0,1,.9-.25c.65,0,1.7.4,1.7,2.07V66.1h-.89V63.31c0-.79-.29-1.44-1.12-1.44a1.27,1.27,0,0,0-1.18.88,1.07,1.07,0,0,0-.06.42V66.1h-.88V59Z"/><path d="M184,62.76c0-.57,0-1.06,0-1.51h.77l0,1h0a1.47,1.47,0,0,1,1.36-1.06.93.93,0,0,1,.24,0V62l-.31,0a1.24,1.24,0,0,0-1.19,1.12,2.77,2.77,0,0,0,0,.42V66.1H184Z"/><path d="M189.21,66.21a2.31,2.31,0,0,1-2.32-2.5,2.37,2.37,0,0,1,2.41-2.57,2.29,2.29,0,0,1,2.33,2.48,2.37,2.37,0,0,1-2.4,2.59Zm0-.66c.84,0,1.47-.79,1.47-1.9,0-.82-.41-1.85-1.45-1.85s-1.49,1-1.49,1.88c0,1.07.6,1.87,1.46,1.87Z"/><path d="M192.74,62.56c0-.51,0-.91,0-1.31h.78l0,.78h0a1.67,1.67,0,0,1,1.53-.89,1.43,1.43,0,0,1,1.36,1h0a1.91,1.91,0,0,1,.55-.63,1.67,1.67,0,0,1,1.07-.34c.65,0,1.6.42,1.6,2.1V66.1h-.86V63.35c0-.94-.35-1.49-1-1.49a1.17,1.17,0,0,0-1.06.79,1.56,1.56,0,0,0-.07.44v3h-.86V63.19c0-.78-.34-1.33-1-1.33a1.31,1.31,0,0,0-1.16,1.31V66.1h-.87V62.56Z"/><path d="M204.52,64.94a8.12,8.12,0,0,0,.07,1.16h-.79l-.08-.61h0a1.79,1.79,0,0,1-1.48.72,1.39,1.39,0,0,1-1.49-1.39c0-1.18,1.05-1.82,2.92-1.81v-.1a1,1,0,0,0-1.1-1.12,2.33,2.33,0,0,0-1.27.36l-.21-.59a3.2,3.2,0,0,1,1.61-.42c1.49,0,1.85,1,1.85,2v1.82Zm-.86-1.32c-1,0-2,.15-2,1.1a.77.77,0,0,0,.82.84,1.22,1.22,0,0,0,1.19-.81.9.9,0,0,0,0-.28Z"/></g><g id="example-system-legend--values" fill="currentColor"><path d="M204.64,12.09l-2.22-6.76h1l1.06,3.33c.28.91.53,1.75.72,2.53h0c.19-.78.46-1.64.77-2.52l1.14-3.34H208l-2.42,6.76Z"/><path d="M211.78,10.93a8.12,8.12,0,0,0,.07,1.16h-.8l-.08-.61h0a1.79,1.79,0,0,1-1.48.72A1.38,1.38,0,0,1,208,10.81C208,9.63,209,9,210.89,9V8.9a1,1,0,0,0-1.1-1.12,2.33,2.33,0,0,0-1.27.36l-.2-.59a3.13,3.13,0,0,1,1.6-.42c1.5,0,1.86,1,1.86,2v1.82Zm-.87-1.32c-1,0-2,.15-2,1.1a.77.77,0,0,0,.82.84,1.22,1.22,0,0,0,1.19-.81.9.9,0,0,0,0-.28Z"/><path d="M213.19,5h.88v7.12h-.88Z"/><path d="M219.6,10.77c0,.5,0,.94,0,1.32h-.79l0-.79h0a1.81,1.81,0,0,1-1.6.9c-.76,0-1.67-.43-1.67-2.13V7.24h.88V9.91c0,.93.29,1.56,1.08,1.56a1.27,1.27,0,0,0,1.16-.81,1.22,1.22,0,0,0,.08-.46v-3h.89v3.53Z"/><path d="M221.56,9.81a1.55,1.55,0,0,0,1.65,1.69,3.36,3.36,0,0,0,1.35-.24l.16.62a4,4,0,0,1-1.63.31,2.26,2.26,0,0,1-2.38-2.45A2.36,2.36,0,0,1,223,7.12a2,2,0,0,1,2,2.28,2.26,2.26,0,0,1,0,.42Zm2.58-.63a1.26,1.26,0,0,0-1.22-1.43,1.45,1.45,0,0,0-1.35,1.43Z"/></g><g id="example-system-legend--hues" fill="currentColor"><path d="M249.89,25.63v2.83h3.27V25.63H254v6.76h-.88V29.22h-3.27v3.17H249V25.63Z"/><path d="M259.59,31.07c0,.5,0,.94,0,1.32h-.79l0-.79h0a1.81,1.81,0,0,1-1.6.9c-.76,0-1.67-.43-1.67-2.12V27.54h.88v2.68c0,.92.29,1.55,1.08,1.55a1.27,1.27,0,0,0,1.16-.81,1.21,1.21,0,0,0,.08-.45v-3h.89v3.53Z"/><path d="M261.55,30.11a1.55,1.55,0,0,0,1.65,1.69,3.36,3.36,0,0,0,1.35-.24l.16.62a4,4,0,0,1-1.63.31A2.26,2.26,0,0,1,260.7,30,2.36,2.36,0,0,1,263,27.42a2,2,0,0,1,2,2.28,2.26,2.26,0,0,1,0,.42Zm2.58-.63a1.26,1.26,0,0,0-1.22-1.43,1.45,1.45,0,0,0-1.35,1.43Z"/></g></g></svg>